<svg xmlns="http://www.w3.org/2000/svg" xmlns:xlink="http://www.w3.org/1999/xlink" width="500" zoomAndPan="magnify" viewBox="0 0 375 374.999991" height="500" preserveAspectRatio="xMidYMid meet" version="1.0"><defs><g/><clipPath id="3a121190c7"><path d="M 133 110.332031 L 228 110.332031 L 228 187.582031 L 133 187.582031 Z M 133 110.332031 " clip-rule="nonzero"/></clipPath></defs><rect x="-37.5" width="450" fill="#ffffff" y="-37.499999" height="449.999989" fill-opacity="1"/><rect x="-37.5" width="450" fill="#f6f6e9" y="-37.499999" height="449.999989" fill-opacity="1"/><g clip-path="url(#3a121190c7)"><path fill="#ed5b2d" d="M 227.003906 146.515625 C 229.476562 142.71875 227.738281 135.15625 215.582031 125.648438 C 214.503906 122.265625 210.175781 118.515625 203.816406 115.5625 C 196.585938 112.203125 188.09375 110.535156 179.90625 110.867188 C 169.601562 111.285156 160.203125 114.679688 151.992188 120.988281 C 134.457031 134.433594 132.726562 143.160156 134.359375 148.121094 C 136.171875 153.613281 143.023438 156.871094 153.167969 157.042969 C 153.191406 157.042969 153.21875 157.042969 153.242188 157.042969 C 159.664062 156.820312 164.699219 154.554688 169.113281 151.46875 C 168.683594 152.632812 168.609375 153.894531 168.914062 155.230469 C 170.3125 161.234375 178.890625 166.722656 189.796875 168.585938 C 189.820312 168.585938 189.859375 168.597656 189.882812 168.597656 C 201.953125 169.835938 206.28125 177.410156 209.136719 182.421875 C 210.628906 185.042969 211.707031 186.945312 213.511719 187.386719 C 213.753906 187.445312 214 187.484375 214.246094 187.484375 C 214.882812 187.484375 215.53125 187.273438 216.195312 186.871094 C 216.21875 186.859375 216.253906 186.832031 216.28125 186.808594 C 219.476562 184.46875 217.320312 179.308594 214.332031 172.152344 C 213.496094 170.167969 212.617188 168.058594 211.792969 165.890625 C 217.320312 168.660156 221.425781 168.84375 224.023438 166.417969 C 227.847656 162.863281 226.597656 155.144531 224.085938 148.746094 C 225.273438 148.355469 226.292969 147.605469 227.003906 146.515625 Z M 210.152344 125.035156 C 211.207031 125.769531 212.199219 126.480469 213.117188 127.179688 C 213.167969 128.453125 212.578125 129.714844 211.367188 130.964844 C 211.253906 131.085938 211.132812 131.199219 211.011719 131.308594 C 207.945312 129.296875 204.539062 128.195312 200.949219 128.613281 C 191.269531 128.894531 184.722656 133.96875 178.730469 139.480469 C 178.695312 139.480469 178.671875 139.480469 178.632812 139.480469 C 175.128906 139.382812 171.121094 138.710938 167.054688 137.902344 C 168.375 136.664062 169.675781 135.425781 170.925781 134.226562 C 183.597656 122.082031 192.761719 113.304688 210.152344 125.035156 Z M 206.414062 157.496094 C 206.550781 158.15625 206.707031 158.820312 206.867188 159.480469 C 196.195312 152.25 187.1875 146.320312 179.050781 146.320312 C 177.566406 146.320312 176.109375 146.515625 174.6875 146.945312 C 175.851562 145.902344 176.992188 144.824219 178.132812 143.757812 C 178.683594 143.242188 179.222656 142.730469 179.761719 142.226562 C 190.558594 142.289062 204.050781 139.628906 211.046875 134.75 C 214.503906 137.496094 217.554688 141.578125 219.785156 145.878906 C 219.390625 145.71875 219 145.523438 218.609375 145.277344 C 214.136719 142.519531 210.667969 141.96875 208.300781 143.636719 C 205.558594 145.574219 204.90625 150.230469 206.414062 157.496094 Z M 182.847656 139.433594 C 187.960938 135.019531 193.425781 131.539062 201.070312 131.332031 C 201.109375 131.332031 201.15625 131.332031 201.195312 131.320312 C 201.585938 131.269531 201.992188 131.246094 202.382812 131.246094 C 204.515625 131.246094 206.621094 131.921875 208.632812 133.074219 C 202.652344 136.808594 192.015625 139.066406 182.847656 139.433594 Z M 153.660156 123.132812 C 170.335938 110.339844 189.917969 112.105469 202.675781 118.023438 C 202.957031 118.160156 203.242188 118.292969 203.523438 118.429688 C 189.148438 113 179.710938 122.03125 169.027344 132.238281 C 167.554688 133.636719 166.046875 135.09375 164.492188 136.527344 C 164.222656 136.75 163.964844 136.96875 163.695312 137.191406 C 163.253906 137.09375 162.800781 137.007812 162.359375 136.910156 C 156.601562 135.683594 150.753906 134.433594 145.890625 134.433594 C 144.171875 134.433594 142.582031 134.59375 141.148438 134.960938 C 144.039062 131.285156 148.242188 127.289062 153.660156 123.132812 Z M 160.753906 139.347656 C 151.121094 145.695312 142.738281 144.125 138.597656 139.445312 C 142.078125 135.535156 151.109375 137.300781 160.753906 139.347656 Z M 153.179688 154.308594 C 144.296875 154.152344 138.378906 151.578125 136.957031 147.261719 C 136.441406 145.707031 136.515625 143.917969 137.152344 141.945312 C 137.164062 141.933594 137.175781 141.921875 137.175781 141.921875 C 142.628906 147.324219 152.984375 148.796875 164.382812 140.121094 C 168.328125 140.953125 172.296875 141.710938 175.960938 142.042969 C 169.40625 148.207031 163.132812 153.953125 153.179688 154.308594 Z M 211.804688 173.195312 C 213.914062 178.230469 216.09375 183.4375 214.699219 184.566406 C 214.527344 184.664062 214.320312 184.761719 214.171875 184.726562 C 213.496094 184.554688 212.445312 182.691406 211.5 181.050781 C 208.558594 175.890625 203.632812 167.261719 190.203125 165.867188 C 179.246094 163.992188 172.53125 158.769531 171.5625 154.59375 C 171.183594 152.9375 171.746094 151.539062 173.242188 150.425781 C 182.027344 145.929688 192.738281 153.183594 206.28125 162.359375 C 206.878906 162.765625 207.480469 163.171875 208.082031 163.585938 C 209.207031 166.96875 210.554688 170.214844 211.804688 173.195312 Z M 222.175781 164.421875 C 220.386719 166.085938 216.707031 165.511719 211.820312 162.816406 C 211.339844 162.496094 210.863281 162.175781 210.398438 161.859375 C 209.882812 160.242188 209.441406 158.597656 209.097656 156.945312 C 207.886719 151.097656 208.179688 147.066406 209.894531 145.867188 C 211.242188 144.910156 213.839844 145.535156 217.210938 147.59375 C 218.558594 148.429688 219.957031 148.90625 221.292969 149.027344 C 224.121094 155.890625 224.539062 162.214844 222.175781 164.421875 Z M 224.722656 145.019531 C 224.320312 145.632812 223.71875 146.027344 223.007812 146.222656 C 220.777344 141.46875 217.382812 136.441406 213.226562 132.960938 C 213.253906 132.9375 213.289062 132.902344 213.3125 132.875 C 214.464844 131.699219 215.238281 130.449219 215.605469 129.152344 C 225.445312 137.351562 226.046875 142.988281 224.722656 145.019531 Z M 224.722656 145.019531 " fill-opacity="1" fill-rule="nonzero"/></g><g fill="#ed5b2d" fill-opacity="1"><g transform="translate(83.601562, 215.015127)"><g><path d="M 26.71875 -11.839844 C 25.425781 -12.484375 23.90625 -11.09375 23 -10.351562 C 21.542969 -9.121094 20.21875 -7.730469 18.957031 -6.277344 C 19.636719 -7.859375 20.3125 -9.476562 20.765625 -11.128906 C 21.089844 -12.226562 21.445312 -13.488281 21.316406 -14.652344 C 21.21875 -15.558594 20.636719 -16.464844 19.730469 -16.691406 C 18.921875 -16.886719 18.210938 -16.367188 17.597656 -15.882812 C 15.269531 -14.070312 13.390625 -11.515625 11.644531 -9.121094 C 12.164062 -10.511719 12.648438 -11.9375 12.9375 -13.359375 C 13.164062 -14.296875 13.328125 -15.269531 13.003906 -16.171875 C 12.292969 -18.148438 10.351562 -18.113281 8.832031 -17.207031 C 6.824219 -16.011719 5.144531 -14.167969 3.785156 -12.257812 C 2.230469 -10.058594 0.742188 -7.34375 0.9375 -4.59375 C 0.96875 -4.074219 1.390625 -3.621094 1.8125 -3.398438 C 2.136719 -3.265625 2.71875 -3.203125 2.652344 -3.71875 C 2.523438 -5.824219 3.492188 -7.925781 4.59375 -9.703125 C 5.757812 -11.582031 7.246094 -13.359375 8.992188 -14.78125 C 9.605469 -15.269531 10.253906 -15.753906 11.03125 -16.011719 C 11.128906 -16.078125 11.257812 -16.078125 11.417969 -16.109375 C 11.417969 -15.914062 11.449219 -15.6875 11.449219 -15.65625 C 11.417969 -15.105469 11.289062 -14.554688 11.128906 -14.007812 C 10.578125 -11.9375 9.832031 -9.898438 8.992188 -7.925781 C 7.085938 -3.460938 4.625 0.710938 2.199219 4.882812 C 1.84375 5.53125 3.398438 6.921875 3.882812 6.113281 C 6.277344 2.230469 8.765625 -1.585938 11.417969 -5.304688 C 13.359375 -7.988281 15.332031 -10.675781 17.660156 -13.035156 C 18.210938 -13.652344 18.859375 -14.328125 19.601562 -14.75 C 19.472656 -12.128906 18.113281 -9.378906 17.078125 -7.050781 C 16.335938 -5.304688 15.496094 -3.589844 14.78125 -1.8125 C 14.296875 -0.710938 13.746094 0.515625 13.714844 1.746094 C 13.683594 2.296875 15.074219 3.65625 15.398438 2.78125 C 16.109375 0.875 17.339844 -0.875 18.601562 -2.492188 C 19.992188 -4.335938 21.542969 -6.082031 23.191406 -7.667969 C 23.871094 -8.3125 24.585938 -8.929688 25.359375 -9.476562 C 25.523438 -9.640625 25.714844 -9.769531 25.910156 -9.867188 C 25.585938 -8.796875 25.101562 -7.730469 24.679688 -6.695312 C 24.035156 -5.109375 23.324219 -3.492188 22.902344 -1.84375 C 22.578125 -0.710938 22.382812 0.515625 22.902344 1.648438 C 23.097656 2.003906 23.613281 2.554688 24.097656 2.523438 C 24.550781 2.457031 24.585938 2.039062 24.390625 1.683594 C 23.90625 0.648438 24.679688 -1.101562 25.003906 -2.070312 C 25.554688 -3.65625 26.234375 -5.207031 26.878906 -6.761719 C 27.464844 -8.25 28.757812 -10.835938 26.71875 -11.839844 Z M 20.183594 -15.007812 C 20.25 -15.074219 20.25 -14.976562 20.183594 -15.007812 Z M 11.742188 -16.171875 C 11.839844 -16.207031 11.808594 -16.078125 11.742188 -16.171875 Z M 19.570312 -15.558594 C 19.570312 -15.589844 19.570312 -15.589844 19.570312 -15.589844 C 19.636719 -15.558594 19.570312 -15.558594 19.570312 -15.558594 Z M 26.136719 -11.03125 C 26.136719 -11.03125 26.136719 -11 26.136719 -10.964844 C 26.105469 -11 26.105469 -11.03125 26.136719 -11.03125 Z M 26.136719 -11.03125 "/></g></g></g><g fill="#ed5b2d" fill-opacity="1"><g transform="translate(112.387445, 215.015127)"><g><path d="M 12.128906 -4.109375 C 10.902344 -3.007812 7.472656 -0.453125 5.53125 -0.226562 C 5.5 -0.226562 5.5 -0.226562 5.464844 -0.226562 C 5.5625 -0.710938 5.628906 -1.164062 5.824219 -1.683594 C 5.984375 -2.167969 6.179688 -2.652344 6.242188 -3.171875 C 6.277344 -3.234375 6.277344 -3.332031 6.242188 -3.460938 C 6.242188 -3.785156 5.886719 -4.207031 5.5 -4.464844 C 5.273438 -4.625 5.015625 -4.722656 4.789062 -4.65625 C 4.59375 -4.625 4.429688 -4.5625 4.238281 -4.496094 C 3.332031 -5.691406 1.683594 -5.917969 0.386719 -4.980469 C -1.195312 -3.785156 -2.265625 -1.777344 -2.683594 0.128906 C -2.8125 0.777344 -1.910156 1.84375 -1.230469 1.585938 C 0.710938 0.808594 2.167969 -0.875 3.882812 -2.003906 C 3.71875 -1.457031 3.621094 -0.90625 3.816406 -0.292969 C 4.074219 0.613281 4.882812 1.390625 5.855469 1.519531 C 6.824219 1.617188 7.761719 1.101562 8.539062 0.648438 C 10.253906 -0.386719 11.773438 -1.714844 13.261719 -3.039062 C 13.84375 -3.589844 12.746094 -4.691406 12.128906 -4.109375 Z M 0.453125 -1.972656 C 0.453125 -1.972656 0.484375 -2.003906 0.484375 -2.003906 C 0.839844 -2.457031 1.230469 -2.910156 1.648438 -3.265625 C 1.941406 -3.492188 2.230469 -3.753906 2.585938 -3.847656 C 2.71875 -3.847656 2.847656 -3.882812 2.976562 -3.914062 C 2.976562 -3.882812 2.976562 -3.882812 3.007812 -3.882812 C 2.101562 -3.363281 1.292969 -2.652344 0.453125 -1.972656 Z M 0.453125 -1.972656 "/></g></g></g><g fill="#ed5b2d" fill-opacity="1"><g transform="translate(124.710385, 215.015127)"><g><path d="M 5.984375 -4.238281 C 4.851562 -6.113281 3.300781 -5.789062 1.8125 -4.65625 C 1.585938 -5.371094 0.421875 -6.144531 0.160156 -5.464844 C -0.550781 -3.558594 -1.328125 -1.683594 -2.039062 0.226562 C -2.296875 0.9375 -0.742188 2.296875 -0.355469 1.457031 C 0.195312 0.257812 0.9375 -0.839844 1.84375 -1.777344 C 2.230469 -2.230469 2.683594 -2.652344 3.171875 -3.007812 C 3.398438 -3.171875 4.335938 -3.882812 4.753906 -3.882812 C 5.015625 -3.621094 5.335938 -3.363281 5.660156 -3.398438 C 6.144531 -3.429688 6.210938 -3.882812 5.984375 -4.238281 Z M 5.984375 -4.238281 "/></g></g></g><g fill="#ed5b2d" fill-opacity="1"><g transform="translate(132.5699, 215.015127)"><g><path d="M 6.082031 -3.980469 C 4.5625 -2.71875 1.457031 -1.035156 0.160156 -0.808594 C 0.195312 -0.9375 0.257812 -1.101562 0.324219 -1.230469 C 0.710938 -2.265625 1.164062 -3.203125 1.746094 -4.140625 C 2.101562 -4.789062 0.515625 -6.179688 0.0664062 -5.371094 C -0.648438 -4.171875 -1.714844 -2.523438 -1.683594 -1.101562 C -1.648438 0.160156 -0.453125 1.328125 0.808594 1.066406 C 1.910156 0.839844 2.976562 0.0976562 3.882812 -0.515625 C 5.015625 -1.292969 6.113281 -2.136719 7.179688 -3.039062 C 7.761719 -3.527344 6.726562 -4.527344 6.082031 -3.980469 Z M 3.171875 -7.375 C 3.65625 -8.3125 3.71875 -8.507812 3.71875 -8.507812 C 4.109375 -9.15625 2.523438 -10.511719 2.070312 -9.703125 C 2.070312 -9.703125 1.875 -9.378906 1.519531 -8.605469 C 1.195312 -7.894531 2.78125 -6.597656 3.171875 -7.375 Z M 3.171875 -7.375 "/></g></g></g><g fill="#ed5b2d" fill-opacity="1"><g transform="translate(138.909263, 215.015127)"><g><path d="M 12.128906 -4.109375 C 10.902344 -3.007812 7.472656 -0.453125 5.53125 -0.226562 C 5.5 -0.226562 5.5 -0.226562 5.464844 -0.226562 C 5.5625 -0.710938 5.628906 -1.164062 5.824219 -1.683594 C 5.984375 -2.167969 6.179688 -2.652344 6.242188 -3.171875 C 6.277344 -3.234375 6.277344 -3.332031 6.242188 -3.460938 C 6.242188 -3.785156 5.886719 -4.207031 5.5 -4.464844 C 5.273438 -4.625 5.015625 -4.722656 4.789062 -4.65625 C 4.59375 -4.625 4.429688 -4.5625 4.238281 -4.496094 C 3.332031 -5.691406 1.683594 -5.917969 0.386719 -4.980469 C -1.195312 -3.785156 -2.265625 -1.777344 -2.683594 0.128906 C -2.8125 0.777344 -1.910156 1.84375 -1.230469 1.585938 C 0.710938 0.808594 2.167969 -0.875 3.882812 -2.003906 C 3.71875 -1.457031 3.621094 -0.90625 3.816406 -0.292969 C 4.074219 0.613281 4.882812 1.390625 5.855469 1.519531 C 6.824219 1.617188 7.761719 1.101562 8.539062 0.648438 C 10.253906 -0.386719 11.773438 -1.714844 13.261719 -3.039062 C 13.84375 -3.589844 12.746094 -4.691406 12.128906 -4.109375 Z M 0.453125 -1.972656 C 0.453125 -1.972656 0.484375 -2.003906 0.484375 -2.003906 C 0.839844 -2.457031 1.230469 -2.910156 1.648438 -3.265625 C 1.941406 -3.492188 2.230469 -3.753906 2.585938 -3.847656 C 2.71875 -3.847656 2.847656 -3.882812 2.976562 -3.914062 C 2.976562 -3.882812 2.976562 -3.882812 3.007812 -3.882812 C 2.101562 -3.363281 1.292969 -2.652344 0.453125 -1.972656 Z M 0.453125 -1.972656 "/></g></g></g><g fill="#ed5b2d" fill-opacity="1"><g transform="translate(151.232203, 215.015127)"><g><path d="M 12.90625 -4.171875 C 10.707031 -3.136719 8.25 -2.101562 6.015625 -1.003906 C 6.46875 -1.941406 6.953125 -2.878906 7.503906 -3.785156 C 7.925781 -4.464844 6.859375 -5.597656 6.144531 -5.371094 C 4.464844 -4.851562 2.878906 -4.042969 1.421875 -3.074219 C 1.421875 -3.105469 1.457031 -3.136719 1.488281 -3.171875 C 1.84375 -3.816406 0.257812 -5.207031 -0.195312 -4.398438 C -1.035156 -2.910156 -1.8125 -1.328125 -2.230469 0.324219 C -2.394531 0.90625 -1.195312 2.328125 -0.648438 1.683594 C 0.710938 0.03125 2.363281 -1.328125 4.207031 -2.328125 C 3.882812 -1.714844 3.621094 -1.066406 3.527344 -0.421875 C 3.363281 0.679688 4.398438 1.746094 5.53125 1.488281 C 6.664062 1.230469 7.761719 0.355469 8.734375 -0.226562 C 10.285156 -1.230469 11.871094 -2.199219 13.554688 -2.976562 C 14.363281 -3.363281 13.617188 -4.496094 12.90625 -4.171875 Z M 12.90625 -4.171875 "/></g></g></g><g fill="#ed5b2d" fill-opacity="1"><g transform="translate(164.266702, 215.015127)"><g><path d="M 12.128906 -4.109375 C 10.902344 -3.007812 7.472656 -0.453125 5.53125 -0.226562 C 5.5 -0.226562 5.5 -0.226562 5.464844 -0.226562 C 5.5625 -0.710938 5.628906 -1.164062 5.824219 -1.683594 C 5.984375 -2.167969 6.179688 -2.652344 6.242188 -3.171875 C 6.277344 -3.234375 6.277344 -3.332031 6.242188 -3.460938 C 6.242188 -3.785156 5.886719 -4.207031 5.5 -4.464844 C 5.273438 -4.625 5.015625 -4.722656 4.789062 -4.65625 C 4.59375 -4.625 4.429688 -4.5625 4.238281 -4.496094 C 3.332031 -5.691406 1.683594 -5.917969 0.386719 -4.980469 C -1.195312 -3.785156 -2.265625 -1.777344 -2.683594 0.128906 C -2.8125 0.777344 -1.910156 1.84375 -1.230469 1.585938 C 0.710938 0.808594 2.167969 -0.875 3.882812 -2.003906 C 3.71875 -1.457031 3.621094 -0.90625 3.816406 -0.292969 C 4.074219 0.613281 4.882812 1.390625 5.855469 1.519531 C 6.824219 1.617188 7.761719 1.101562 8.539062 0.648438 C 10.253906 -0.386719 11.773438 -1.714844 13.261719 -3.039062 C 13.84375 -3.589844 12.746094 -4.691406 12.128906 -4.109375 Z M 0.453125 -1.972656 C 0.453125 -1.972656 0.484375 -2.003906 0.484375 -2.003906 C 0.839844 -2.457031 1.230469 -2.910156 1.648438 -3.265625 C 1.941406 -3.492188 2.230469 -3.753906 2.585938 -3.847656 C 2.71875 -3.847656 2.847656 -3.882812 2.976562 -3.914062 C 2.976562 -3.882812 2.976562 -3.882812 3.007812 -3.882812 C 2.101562 -3.363281 1.292969 -2.652344 0.453125 -1.972656 Z M 0.453125 -1.972656 "/></g></g></g><g fill="#ed5b2d" fill-opacity="1"><g transform="translate(176.589642, 215.015127)"><g/></g></g><g fill="#ed5b2d" fill-opacity="1"><g transform="translate(188.783207, 215.015127)"><g><path d="M 20.734375 -14.71875 C 18.890625 -14.328125 17.207031 -12.292969 16.011719 -11 C 14.363281 -9.25 12.84375 -7.40625 11.386719 -5.5 C 12.128906 -7.277344 12.875 -9.089844 13.585938 -10.867188 C 14.394531 -12.9375 16.53125 -16.660156 13.554688 -18.015625 C 12.226562 -18.632812 10.964844 -17.695312 9.867188 -16.984375 C 8.507812 -16.140625 7.214844 -15.171875 6.015625 -14.101562 C 4.753906 -12.972656 3.589844 -11.710938 2.523438 -10.351562 C 1.488281 -9.023438 0.648438 -7.601562 1.035156 -5.886719 C 1.195312 -5.144531 2.945312 -4.207031 2.683594 -5.402344 C 2.296875 -7.179688 3.980469 -8.894531 5.046875 -10.09375 C 6.113281 -11.289062 7.277344 -12.421875 8.507812 -13.425781 C 9.800781 -14.492188 11.289062 -15.753906 12.875 -16.335938 C 13.035156 -16.433594 13.230469 -16.464844 13.390625 -16.496094 C 13.390625 -16.207031 13.328125 -15.949219 13.261719 -15.6875 C 13.035156 -14.847656 12.648438 -14.039062 12.355469 -13.199219 C 9.929688 -7.019531 7.246094 -0.96875 4.109375 4.917969 C 3.753906 5.5625 5.273438 6.921875 5.757812 6.113281 C 8.796875 1.132812 12.355469 -3.6875 16.238281 -8.085938 C 17.628906 -9.703125 19.183594 -11.613281 21.089844 -12.710938 C 21.253906 -12.808594 21.445312 -12.875 21.640625 -12.9375 C 21.640625 -12.484375 21.609375 -12.035156 21.542969 -11.613281 C 21.253906 -9.703125 20.671875 -7.828125 20.054688 -6.015625 C 19.570312 -4.59375 19.050781 -3.203125 18.535156 -1.8125 C 17.984375 -0.324219 17.628906 1.066406 18.242188 2.585938 C 18.566406 3.398438 20.25 3.882812 19.730469 2.621094 C 19.148438 1.164062 20.28125 -0.742188 20.765625 -2.101562 C 21.21875 -3.300781 21.640625 -4.527344 22.027344 -5.757812 C 22.546875 -7.375 23.03125 -9.058594 23.257812 -10.773438 C 23.484375 -12.390625 23.03125 -15.171875 20.734375 -14.71875 Z M 20.734375 -14.71875 "/></g></g></g><g fill="#ed5b2d" fill-opacity="1"><g transform="translate(213.040972, 215.015127)"><g><path d="M 12.128906 -4.109375 C 10.902344 -3.007812 7.472656 -0.453125 5.53125 -0.226562 C 5.5 -0.226562 5.5 -0.226562 5.464844 -0.226562 C 5.5625 -0.710938 5.628906 -1.164062 5.824219 -1.683594 C 5.984375 -2.167969 6.179688 -2.652344 6.242188 -3.171875 C 6.277344 -3.234375 6.277344 -3.332031 6.242188 -3.460938 C 6.242188 -3.785156 5.886719 -4.207031 5.5 -4.464844 C 5.273438 -4.625 5.015625 -4.722656 4.789062 -4.65625 C 4.59375 -4.625 4.429688 -4.5625 4.238281 -4.496094 C 3.332031 -5.691406 1.683594 -5.917969 0.386719 -4.980469 C -1.195312 -3.785156 -2.265625 -1.777344 -2.683594 0.128906 C -2.8125 0.777344 -1.910156 1.84375 -1.230469 1.585938 C 0.710938 0.808594 2.167969 -0.875 3.882812 -2.003906 C 3.71875 -1.457031 3.621094 -0.90625 3.816406 -0.292969 C 4.074219 0.613281 4.882812 1.390625 5.855469 1.519531 C 6.824219 1.617188 7.761719 1.101562 8.539062 0.648438 C 10.253906 -0.386719 11.773438 -1.714844 13.261719 -3.039062 C 13.84375 -3.589844 12.746094 -4.691406 12.128906 -4.109375 Z M 0.453125 -1.972656 C 0.453125 -1.972656 0.484375 -2.003906 0.484375 -2.003906 C 0.839844 -2.457031 1.230469 -2.910156 1.648438 -3.265625 C 1.941406 -3.492188 2.230469 -3.753906 2.585938 -3.847656 C 2.71875 -3.847656 2.847656 -3.882812 2.976562 -3.914062 C 2.976562 -3.882812 2.976562 -3.882812 3.007812 -3.882812 C 2.101562 -3.363281 1.292969 -2.652344 0.453125 -1.972656 Z M 0.453125 -1.972656 "/></g></g></g><g fill="#ed5b2d" fill-opacity="1"><g transform="translate(225.363912, 215.015127)"><g><path d="M 7.375 -6.210938 C 6.210938 -7.308594 5.046875 -6.632812 4.011719 -5.757812 C 3.136719 -4.980469 2.328125 -4.140625 1.617188 -3.203125 C 1.84375 -3.847656 2.070312 -4.496094 2.296875 -5.175781 C 2.554688 -5.886719 0.90625 -7.214844 0.613281 -6.371094 C -1.066406 -1.390625 -2.78125 3.621094 -4.464844 8.605469 C -4.722656 9.347656 -3.074219 10.675781 -2.8125 9.832031 C -1.683594 6.597656 -0.226562 3.332031 1.648438 0.421875 C 1.875 0.839844 2.394531 1.328125 2.78125 1.328125 C 5.046875 1.359375 7.148438 -1.195312 7.859375 -3.136719 C 8.28125 -4.171875 8.214844 -5.402344 7.375 -6.210938 Z M 6.113281 -4.140625 C 5.5 -2.71875 3.914062 -0.582031 2.199219 -0.386719 C 2.585938 -0.96875 2.976562 -1.519531 3.429688 -2.039062 C 4.042969 -2.847656 4.753906 -3.589844 5.53125 -4.238281 C 5.691406 -4.398438 5.886719 -4.5625 6.082031 -4.691406 C 6.144531 -4.753906 6.210938 -4.789062 6.277344 -4.851562 C 6.242188 -4.59375 6.210938 -4.367188 6.113281 -4.140625 Z M 6.113281 -4.140625 "/></g></g></g><g fill="#ed5b2d" fill-opacity="1"><g transform="translate(235.358105, 215.015127)"><g><path d="M 3.785156 -4.238281 C 3.753906 -4.367188 3.71875 -4.464844 3.6875 -4.59375 C 4.140625 -5.109375 2.945312 -6.46875 2.296875 -6.144531 C 0.257812 -5.109375 -3.398438 -1.550781 -1.195312 0.90625 C -0.03125 2.199219 1.488281 1.648438 2.457031 0.421875 C 3.492188 -0.90625 3.945312 -2.554688 3.785156 -4.238281 Z M 1.550781 -2.070312 C 1.328125 -1.585938 1.035156 -1.132812 0.648438 -0.742188 C 0.421875 -0.484375 0.195312 -0.386719 -0.0664062 -0.160156 C -0.03125 -0.324219 0 -0.515625 0.03125 -0.582031 C 0.0976562 -0.808594 0.195312 -1.003906 0.292969 -1.230469 C 0.515625 -1.683594 0.808594 -2.136719 1.132812 -2.523438 C 1.390625 -2.878906 1.683594 -3.171875 2.003906 -3.460938 C 1.910156 -2.976562 1.777344 -2.523438 1.550781 -2.070312 Z M 1.550781 -2.070312 "/></g></g></g><g fill="#ed5b2d" fill-opacity="1"><g transform="translate(241.341682, 215.015127)"><g><path d="M 7.40625 -3.945312 C 6.5 -2.976562 3.332031 -1.292969 0.96875 -0.96875 C 0.839844 -2.167969 1.714844 -3.945312 2.003906 -4.789062 C 2.585938 -6.5 3.171875 -8.214844 3.785156 -9.898438 C 5.046875 -13.359375 6.40625 -16.789062 7.828125 -20.183594 C 8.121094 -20.898438 6.5 -22.253906 6.144531 -21.414062 C 4.851562 -18.308594 3.621094 -15.171875 2.457031 -12 C 1.875 -10.480469 1.359375 -8.960938 0.808594 -7.40625 C 0.324219 -5.953125 -0.292969 -4.464844 -0.613281 -2.945312 C -0.839844 -1.84375 -0.742188 -0.742188 0.03125 0.160156 C 0.742188 1.035156 1.714844 0.875 2.71875 0.550781 C 4.789062 -0.0664062 6.890625 -1.457031 8.378906 -3.039062 C 8.929688 -3.65625 7.957031 -4.5625 7.40625 -3.945312 Z M 7.40625 -3.945312 "/></g></g></g><g fill="#ed5b2d" fill-opacity="1"><g transform="translate(248.877765, 215.015127)"><g><path d="M 6.082031 -3.980469 C 4.5625 -2.71875 1.457031 -1.035156 0.160156 -0.808594 C 0.195312 -0.9375 0.257812 -1.101562 0.324219 -1.230469 C 0.710938 -2.265625 1.164062 -3.203125 1.746094 -4.140625 C 2.101562 -4.789062 0.515625 -6.179688 0.0664062 -5.371094 C -0.648438 -4.171875 -1.714844 -2.523438 -1.683594 -1.101562 C -1.648438 0.160156 -0.453125 1.328125 0.808594 1.066406 C 1.910156 0.839844 2.976562 0.0976562 3.882812 -0.515625 C 5.015625 -1.292969 6.113281 -2.136719 7.179688 -3.039062 C 7.761719 -3.527344 6.726562 -4.527344 6.082031 -3.980469 Z M 3.171875 -7.375 C 3.65625 -8.3125 3.71875 -8.507812 3.71875 -8.507812 C 4.109375 -9.15625 2.523438 -10.511719 2.070312 -9.703125 C 2.070312 -9.703125 1.875 -9.378906 1.519531 -8.605469 C 1.195312 -7.894531 2.78125 -6.597656 3.171875 -7.375 Z M 3.171875 -7.375 "/></g></g></g><g fill="#ed5b2d" fill-opacity="1"><g transform="translate(255.217128, 215.015127)"><g><path d="M 16.078125 -12.390625 C 13.035156 -13.972656 9.25 -14.007812 5.824219 -13.972656 C 6.308594 -15.042969 6.824219 -16.109375 7.34375 -17.144531 C 7.667969 -17.824219 6.050781 -19.214844 5.660156 -18.375 C 4.949219 -16.917969 4.238281 -15.429688 3.558594 -13.941406 C -0.195312 -13.8125 -3.980469 -13.390625 -7.699219 -12.679688 C -8.476562 -12.519531 -7.246094 -10.867188 -6.46875 -11 C -3.398438 -11.613281 -0.324219 -11.96875 2.78125 -12.128906 C 0.160156 -6.179688 -1.910156 0.03125 -1.8125 6.632812 C -1.777344 7.375 -0.0664062 8.539062 -0.0976562 7.503906 C -0.195312 0.550781 2.167969 -5.984375 5.015625 -12.226562 C 5.046875 -12.226562 5.078125 -12.226562 5.109375 -12.226562 C 6.953125 -12.257812 8.796875 -12.226562 10.640625 -12.097656 C 12.519531 -11.96875 14.425781 -11.808594 16.109375 -10.902344 C 16.464844 -10.707031 16.886719 -10.738281 16.949219 -11.222656 C 16.984375 -11.675781 16.433594 -12.195312 16.078125 -12.390625 Z M 16.078125 -12.390625 "/></g></g></g><g fill="#ed5b2d" fill-opacity="1"><g transform="translate(259.680552, 215.015127)"><g><path d="M 12.128906 -4.109375 C 10.902344 -3.007812 7.472656 -0.453125 5.53125 -0.226562 C 5.5 -0.226562 5.5 -0.226562 5.464844 -0.226562 C 5.5625 -0.710938 5.628906 -1.164062 5.824219 -1.683594 C 5.984375 -2.167969 6.179688 -2.652344 6.242188 -3.171875 C 6.277344 -3.234375 6.277344 -3.332031 6.242188 -3.460938 C 6.242188 -3.785156 5.886719 -4.207031 5.5 -4.464844 C 5.273438 -4.625 5.015625 -4.722656 4.789062 -4.65625 C 4.59375 -4.625 4.429688 -4.5625 4.238281 -4.496094 C 3.332031 -5.691406 1.683594 -5.917969 0.386719 -4.980469 C -1.195312 -3.785156 -2.265625 -1.777344 -2.683594 0.128906 C -2.8125 0.777344 -1.910156 1.84375 -1.230469 1.585938 C 0.710938 0.808594 2.167969 -0.875 3.882812 -2.003906 C 3.71875 -1.457031 3.621094 -0.90625 3.816406 -0.292969 C 4.074219 0.613281 4.882812 1.390625 5.855469 1.519531 C 6.824219 1.617188 7.761719 1.101562 8.539062 0.648438 C 10.253906 -0.386719 11.773438 -1.714844 13.261719 -3.039062 C 13.84375 -3.589844 12.746094 -4.691406 12.128906 -4.109375 Z M 0.453125 -1.972656 C 0.453125 -1.972656 0.484375 -2.003906 0.484375 -2.003906 C 0.839844 -2.457031 1.230469 -2.910156 1.648438 -3.265625 C 1.941406 -3.492188 2.230469 -3.753906 2.585938 -3.847656 C 2.71875 -3.847656 2.847656 -3.882812 2.976562 -3.914062 C 2.976562 -3.882812 2.976562 -3.882812 3.007812 -3.882812 C 2.101562 -3.363281 1.292969 -2.652344 0.453125 -1.972656 Z M 0.453125 -1.972656 "/></g></g></g><g fill="#ed5b2d" fill-opacity="1"><g transform="translate(272.003492, 215.015127)"><g><path d="M 12.90625 -4.171875 C 10.707031 -3.136719 8.25 -2.101562 6.015625 -1.003906 C 6.46875 -1.941406 6.953125 -2.878906 7.503906 -3.785156 C 7.925781 -4.464844 6.859375 -5.597656 6.144531 -5.371094 C 4.464844 -4.851562 2.878906 -4.042969 1.421875 -3.074219 C 1.421875 -3.105469 1.457031 -3.136719 1.488281 -3.171875 C 1.84375 -3.816406 0.257812 -5.207031 -0.195312 -4.398438 C -1.035156 -2.910156 -1.8125 -1.328125 -2.230469 0.324219 C -2.394531 0.90625 -1.195312 2.328125 -0.648438 1.683594 C 0.710938 0.03125 2.363281 -1.328125 4.207031 -2.328125 C 3.882812 -1.714844 3.621094 -1.066406 3.527344 -0.421875 C 3.363281 0.679688 4.398438 1.746094 5.53125 1.488281 C 6.664062 1.230469 7.761719 0.355469 8.734375 -0.226562 C 10.285156 -1.230469 11.871094 -2.199219 13.554688 -2.976562 C 14.363281 -3.363281 13.617188 -4.496094 12.90625 -4.171875 Z M 12.90625 -4.171875 "/></g></g></g><g fill="#ed5b2d" fill-opacity="1"><g transform="translate(285.03798, 215.015127)"><g><path d="M 6.082031 -3.980469 C 4.5625 -2.71875 1.457031 -1.035156 0.160156 -0.808594 C 0.195312 -0.9375 0.257812 -1.101562 0.324219 -1.230469 C 0.710938 -2.265625 1.164062 -3.203125 1.746094 -4.140625 C 2.101562 -4.789062 0.515625 -6.179688 0.0664062 -5.371094 C -0.648438 -4.171875 -1.714844 -2.523438 -1.683594 -1.101562 C -1.648438 0.160156 -0.453125 1.328125 0.808594 1.066406 C 1.910156 0.839844 2.976562 0.0976562 3.882812 -0.515625 C 5.015625 -1.292969 6.113281 -2.136719 7.179688 -3.039062 C 7.761719 -3.527344 6.726562 -4.527344 6.082031 -3.980469 Z M 3.171875 -7.375 C 3.65625 -8.3125 3.71875 -8.507812 3.71875 -8.507812 C 4.109375 -9.15625 2.523438 -10.511719 2.070312 -9.703125 C 2.070312 -9.703125 1.875 -9.378906 1.519531 -8.605469 C 1.195312 -7.894531 2.78125 -6.597656 3.171875 -7.375 Z M 3.171875 -7.375 "/></g></g></g><g fill="#ff8f6c" fill-opacity="1"><g transform="translate(109.910154, 238.880243)"><g><path d="M 7.375 -6.96875 C 7.375 -6.132812 7.097656 -5.457031 6.546875 -4.9375 C 5.992188 -4.425781 5.171875 -4.171875 4.078125 -4.171875 L 2.09375 -4.171875 L 2.09375 0 L 1.125 0 L 1.125 -9.78125 L 4.078125 -9.78125 C 5.171875 -9.78125 5.992188 -9.523438 6.546875 -9.015625 C 7.097656 -8.503906 7.375 -7.820312 7.375 -6.96875 Z M 4.078125 -5.015625 C 5.609375 -5.015625 6.375 -5.664062 6.375 -6.96875 C 6.375 -7.625 6.191406 -8.117188 5.828125 -8.453125 C 5.460938 -8.785156 4.878906 -8.953125 4.078125 -8.953125 L 2.09375 -8.953125 L 2.09375 -5.015625 Z M 4.078125 -5.015625 "/></g></g></g><g fill="#ff8f6c" fill-opacity="1"><g transform="translate(117.801747, 238.880243)"><g><path d="M 3.75 0.109375 C 2.875 0.109375 2.15625 -0.09375 1.59375 -0.5 C 1.039062 -0.90625 0.734375 -1.457031 0.671875 -2.15625 L 1.6875 -2.15625 C 1.726562 -1.726562 1.925781 -1.378906 2.28125 -1.109375 C 2.644531 -0.847656 3.128906 -0.71875 3.734375 -0.71875 C 4.265625 -0.71875 4.679688 -0.84375 4.984375 -1.09375 C 5.296875 -1.34375 5.453125 -1.65625 5.453125 -2.03125 C 5.453125 -2.289062 5.363281 -2.503906 5.1875 -2.671875 C 5.019531 -2.835938 4.804688 -2.96875 4.546875 -3.0625 C 4.296875 -3.164062 3.953125 -3.273438 3.515625 -3.390625 C 2.941406 -3.535156 2.476562 -3.679688 2.125 -3.828125 C 1.769531 -3.984375 1.46875 -4.207031 1.21875 -4.5 C 0.976562 -4.789062 0.859375 -5.1875 0.859375 -5.6875 C 0.859375 -6.0625 0.96875 -6.40625 1.1875 -6.71875 C 1.414062 -7.039062 1.734375 -7.289062 2.140625 -7.46875 C 2.554688 -7.65625 3.023438 -7.75 3.546875 -7.75 C 4.367188 -7.75 5.03125 -7.539062 5.53125 -7.125 C 6.03125 -6.71875 6.300781 -6.148438 6.34375 -5.421875 L 5.359375 -5.421875 C 5.328125 -5.867188 5.148438 -6.226562 4.828125 -6.5 C 4.515625 -6.78125 4.078125 -6.921875 3.515625 -6.921875 C 3.015625 -6.921875 2.609375 -6.800781 2.296875 -6.5625 C 1.992188 -6.332031 1.84375 -6.046875 1.84375 -5.703125 C 1.84375 -5.398438 1.929688 -5.148438 2.109375 -4.953125 C 2.296875 -4.765625 2.523438 -4.617188 2.796875 -4.515625 C 3.066406 -4.410156 3.429688 -4.289062 3.890625 -4.15625 C 4.441406 -4.007812 4.878906 -3.863281 5.203125 -3.71875 C 5.535156 -3.582031 5.816406 -3.378906 6.046875 -3.109375 C 6.273438 -2.835938 6.394531 -2.476562 6.40625 -2.03125 C 6.40625 -1.613281 6.289062 -1.242188 6.0625 -0.921875 C 5.84375 -0.609375 5.53125 -0.359375 5.125 -0.171875 C 4.726562 0.015625 4.269531 0.109375 3.75 0.109375 Z M 3.75 0.109375 "/></g></g></g><g fill="#ff8f6c" fill-opacity="1"><g transform="translate(124.937767, 238.880243)"><g><path d="M 1.609375 -9.09375 C 1.410156 -9.09375 1.238281 -9.160156 1.09375 -9.296875 C 0.957031 -9.429688 0.890625 -9.601562 0.890625 -9.8125 C 0.890625 -10.019531 0.957031 -10.191406 1.09375 -10.328125 C 1.238281 -10.460938 1.410156 -10.53125 1.609375 -10.53125 C 1.804688 -10.53125 1.972656 -10.460938 2.109375 -10.328125 C 2.253906 -10.191406 2.328125 -10.019531 2.328125 -9.8125 C 2.328125 -9.601562 2.253906 -9.429688 2.109375 -9.296875 C 1.972656 -9.160156 1.804688 -9.09375 1.609375 -9.09375 Z M 2.09375 -7.640625 L 2.09375 0 L 1.125 0 L 1.125 -7.640625 Z M 2.09375 -7.640625 "/></g></g></g><g fill="#ff8f6c" fill-opacity="1"><g transform="translate(128.141975, 238.880243)"><g><path d="M 0.671875 -3.828125 C 0.671875 -4.617188 0.828125 -5.3125 1.140625 -5.90625 C 1.460938 -6.5 1.898438 -6.953125 2.453125 -7.265625 C 3.015625 -7.585938 3.65625 -7.75 4.375 -7.75 C 5.320312 -7.75 6.097656 -7.515625 6.703125 -7.046875 C 7.316406 -6.585938 7.710938 -5.957031 7.890625 -5.15625 L 6.84375 -5.15625 C 6.71875 -5.707031 6.4375 -6.140625 6 -6.453125 C 5.5625 -6.765625 5.019531 -6.921875 4.375 -6.921875 C 3.863281 -6.921875 3.398438 -6.800781 2.984375 -6.5625 C 2.578125 -6.332031 2.253906 -5.984375 2.015625 -5.515625 C 1.785156 -5.054688 1.671875 -4.492188 1.671875 -3.828125 C 1.671875 -3.148438 1.785156 -2.578125 2.015625 -2.109375 C 2.253906 -1.640625 2.578125 -1.289062 2.984375 -1.0625 C 3.398438 -0.832031 3.863281 -0.71875 4.375 -0.71875 C 5.019531 -0.71875 5.5625 -0.875 6 -1.1875 C 6.4375 -1.5 6.71875 -1.929688 6.84375 -2.484375 L 7.890625 -2.484375 C 7.710938 -1.703125 7.316406 -1.070312 6.703125 -0.59375 C 6.085938 -0.125 5.3125 0.109375 4.375 0.109375 C 3.65625 0.109375 3.015625 -0.0507812 2.453125 -0.375 C 1.898438 -0.695312 1.460938 -1.148438 1.140625 -1.734375 C 0.828125 -2.328125 0.671875 -3.023438 0.671875 -3.828125 Z M 0.671875 -3.828125 "/></g></g></g><g fill="#ff8f6c" fill-opacity="1"><g transform="translate(136.719184, 238.880243)"><g><path d="M 4.46875 0.109375 C 3.75 0.109375 3.101562 -0.0507812 2.53125 -0.375 C 1.957031 -0.695312 1.503906 -1.148438 1.171875 -1.734375 C 0.835938 -2.328125 0.671875 -3.023438 0.671875 -3.828125 C 0.671875 -4.617188 0.835938 -5.3125 1.171875 -5.90625 C 1.515625 -6.5 1.972656 -6.953125 2.546875 -7.265625 C 3.128906 -7.585938 3.78125 -7.75 4.5 -7.75 C 5.21875 -7.75 5.867188 -7.585938 6.453125 -7.265625 C 7.035156 -6.953125 7.488281 -6.5 7.8125 -5.90625 C 8.144531 -5.3125 8.3125 -4.617188 8.3125 -3.828125 C 8.3125 -3.035156 8.144531 -2.34375 7.8125 -1.75 C 7.476562 -1.15625 7.015625 -0.695312 6.421875 -0.375 C 5.835938 -0.0507812 5.1875 0.109375 4.46875 0.109375 Z M 4.46875 -0.734375 C 4.96875 -0.734375 5.429688 -0.847656 5.859375 -1.078125 C 6.296875 -1.304688 6.644531 -1.648438 6.90625 -2.109375 C 7.175781 -2.578125 7.3125 -3.148438 7.3125 -3.828125 C 7.3125 -4.492188 7.179688 -5.054688 6.921875 -5.515625 C 6.660156 -5.984375 6.3125 -6.332031 5.875 -6.5625 C 5.445312 -6.789062 4.984375 -6.90625 4.484375 -6.90625 C 3.972656 -6.90625 3.503906 -6.789062 3.078125 -6.5625 C 2.648438 -6.332031 2.304688 -5.984375 2.046875 -5.515625 C 1.796875 -5.054688 1.671875 -4.492188 1.671875 -3.828125 C 1.671875 -3.148438 1.796875 -2.578125 2.046875 -2.109375 C 2.304688 -1.648438 2.644531 -1.304688 3.0625 -1.078125 C 3.488281 -0.847656 3.957031 -0.734375 4.46875 -0.734375 Z M 5.8125 -9.953125 L 2.953125 -8.296875 L 2.953125 -9.046875 L 5.8125 -10.84375 Z M 5.8125 -9.953125 "/></g></g></g><g fill="#ff8f6c" fill-opacity="1"><g transform="translate(145.702166, 238.880243)"><g><path d="M 2.09375 -10.359375 L 2.09375 0 L 1.125 0 L 1.125 -10.359375 Z M 2.09375 -10.359375 "/></g></g></g><g fill="#ff8f6c" fill-opacity="1"><g transform="translate(148.906374, 238.880243)"><g><path d="M 4.46875 0.109375 C 3.75 0.109375 3.101562 -0.0507812 2.53125 -0.375 C 1.957031 -0.695312 1.503906 -1.148438 1.171875 -1.734375 C 0.835938 -2.328125 0.671875 -3.023438 0.671875 -3.828125 C 0.671875 -4.617188 0.835938 -5.3125 1.171875 -5.90625 C 1.515625 -6.5 1.972656 -6.953125 2.546875 -7.265625 C 3.128906 -7.585938 3.78125 -7.75 4.5 -7.75 C 5.21875 -7.75 5.867188 -7.585938 6.453125 -7.265625 C 7.035156 -6.953125 7.488281 -6.5 7.8125 -5.90625 C 8.144531 -5.3125 8.3125 -4.617188 8.3125 -3.828125 C 8.3125 -3.035156 8.144531 -2.34375 7.8125 -1.75 C 7.476562 -1.15625 7.015625 -0.695312 6.421875 -0.375 C 5.835938 -0.0507812 5.1875 0.109375 4.46875 0.109375 Z M 4.46875 -0.734375 C 4.96875 -0.734375 5.429688 -0.847656 5.859375 -1.078125 C 6.296875 -1.304688 6.644531 -1.648438 6.90625 -2.109375 C 7.175781 -2.578125 7.3125 -3.148438 7.3125 -3.828125 C 7.3125 -4.492188 7.179688 -5.054688 6.921875 -5.515625 C 6.660156 -5.984375 6.3125 -6.332031 5.875 -6.5625 C 5.445312 -6.789062 4.984375 -6.90625 4.484375 -6.90625 C 3.972656 -6.90625 3.503906 -6.789062 3.078125 -6.5625 C 2.648438 -6.332031 2.304688 -5.984375 2.046875 -5.515625 C 1.796875 -5.054688 1.671875 -4.492188 1.671875 -3.828125 C 1.671875 -3.148438 1.796875 -2.578125 2.046875 -2.109375 C 2.304688 -1.648438 2.644531 -1.304688 3.0625 -1.078125 C 3.488281 -0.847656 3.957031 -0.734375 4.46875 -0.734375 Z M 4.46875 -0.734375 "/></g></g></g><g fill="#ff8f6c" fill-opacity="1"><g transform="translate(157.889356, 238.880243)"><g><path d="M 4.328125 -7.75 C 5.046875 -7.75 5.671875 -7.582031 6.203125 -7.25 C 6.734375 -6.914062 7.113281 -6.492188 7.34375 -5.984375 L 7.34375 -7.640625 L 8.328125 -7.640625 L 8.328125 0.203125 C 8.328125 0.898438 8.175781 1.519531 7.875 2.0625 C 7.570312 2.601562 7.148438 3.019531 6.609375 3.3125 C 6.066406 3.601562 5.453125 3.75 4.765625 3.75 C 3.785156 3.75 2.96875 3.515625 2.3125 3.046875 C 1.664062 2.585938 1.265625 1.953125 1.109375 1.140625 L 2.078125 1.140625 C 2.242188 1.679688 2.5625 2.109375 3.03125 2.421875 C 3.5 2.734375 4.078125 2.890625 4.765625 2.890625 C 5.253906 2.890625 5.691406 2.785156 6.078125 2.578125 C 6.472656 2.367188 6.78125 2.054688 7 1.640625 C 7.226562 1.234375 7.34375 0.753906 7.34375 0.203125 L 7.34375 -1.6875 C 7.101562 -1.164062 6.71875 -0.734375 6.1875 -0.390625 C 5.664062 -0.0546875 5.046875 0.109375 4.328125 0.109375 C 3.628906 0.109375 3 -0.0507812 2.4375 -0.375 C 1.882812 -0.707031 1.453125 -1.171875 1.140625 -1.765625 C 0.828125 -2.359375 0.671875 -3.050781 0.671875 -3.84375 C 0.671875 -4.625 0.828125 -5.3125 1.140625 -5.90625 C 1.453125 -6.5 1.882812 -6.953125 2.4375 -7.265625 C 3 -7.585938 3.628906 -7.75 4.328125 -7.75 Z M 7.34375 -3.828125 C 7.34375 -4.441406 7.21875 -4.976562 6.96875 -5.4375 C 6.71875 -5.90625 6.375 -6.265625 5.9375 -6.515625 C 5.507812 -6.773438 5.035156 -6.90625 4.515625 -6.90625 C 3.972656 -6.90625 3.484375 -6.78125 3.046875 -6.53125 C 2.617188 -6.289062 2.28125 -5.9375 2.03125 -5.46875 C 1.789062 -5.007812 1.671875 -4.46875 1.671875 -3.84375 C 1.671875 -3.207031 1.789062 -2.65625 2.03125 -2.1875 C 2.28125 -1.71875 2.617188 -1.359375 3.046875 -1.109375 C 3.484375 -0.859375 3.972656 -0.734375 4.515625 -0.734375 C 5.035156 -0.734375 5.507812 -0.859375 5.9375 -1.109375 C 6.375 -1.367188 6.71875 -1.726562 6.96875 -2.1875 C 7.21875 -2.65625 7.34375 -3.203125 7.34375 -3.828125 Z M 7.34375 -3.828125 "/></g></g></g><g fill="#ff8f6c" fill-opacity="1"><g transform="translate(167.334085, 238.880243)"><g><path d="M 0.671875 -3.84375 C 0.671875 -4.625 0.828125 -5.3125 1.140625 -5.90625 C 1.453125 -6.5 1.882812 -6.953125 2.4375 -7.265625 C 3 -7.585938 3.628906 -7.75 4.328125 -7.75 C 5.054688 -7.75 5.679688 -7.582031 6.203125 -7.25 C 6.734375 -6.914062 7.113281 -6.488281 7.34375 -5.96875 L 7.34375 -7.640625 L 8.328125 -7.640625 L 8.328125 0 L 7.34375 0 L 7.34375 -1.6875 C 7.101562 -1.164062 6.71875 -0.734375 6.1875 -0.390625 C 5.664062 -0.0546875 5.039062 0.109375 4.3125 0.109375 C 3.625 0.109375 3 -0.0507812 2.4375 -0.375 C 1.882812 -0.707031 1.453125 -1.171875 1.140625 -1.765625 C 0.828125 -2.359375 0.671875 -3.050781 0.671875 -3.84375 Z M 7.34375 -3.828125 C 7.34375 -4.441406 7.21875 -4.976562 6.96875 -5.4375 C 6.71875 -5.90625 6.375 -6.265625 5.9375 -6.515625 C 5.507812 -6.773438 5.035156 -6.90625 4.515625 -6.90625 C 3.972656 -6.90625 3.484375 -6.78125 3.046875 -6.53125 C 2.617188 -6.289062 2.28125 -5.9375 2.03125 -5.46875 C 1.789062 -5.007812 1.671875 -4.46875 1.671875 -3.84375 C 1.671875 -3.207031 1.789062 -2.65625 2.03125 -2.1875 C 2.28125 -1.71875 2.617188 -1.359375 3.046875 -1.109375 C 3.484375 -0.859375 3.972656 -0.734375 4.515625 -0.734375 C 5.035156 -0.734375 5.507812 -0.859375 5.9375 -1.109375 C 6.375 -1.367188 6.71875 -1.726562 6.96875 -2.1875 C 7.21875 -2.65625 7.34375 -3.203125 7.34375 -3.828125 Z M 7.34375 -3.828125 "/></g></g></g><g fill="#ff8f6c" fill-opacity="1"><g transform="translate(176.778813, 238.880243)"><g/></g></g><g fill="#ff8f6c" fill-opacity="1"><g transform="translate(180.612675, 238.880243)"><g><path d="M 8.03125 -4.21875 C 8.03125 -3.875 8.023438 -3.613281 8.015625 -3.4375 L 1.671875 -3.4375 C 1.691406 -2.863281 1.828125 -2.367188 2.078125 -1.953125 C 2.335938 -1.546875 2.671875 -1.238281 3.078125 -1.03125 C 3.492188 -0.820312 3.941406 -0.71875 4.421875 -0.71875 C 5.054688 -0.71875 5.585938 -0.867188 6.015625 -1.171875 C 6.453125 -1.484375 6.742188 -1.898438 6.890625 -2.421875 L 7.921875 -2.421875 C 7.734375 -1.671875 7.332031 -1.0625 6.71875 -0.59375 C 6.113281 -0.125 5.347656 0.109375 4.421875 0.109375 C 3.703125 0.109375 3.054688 -0.0507812 2.484375 -0.375 C 1.921875 -0.695312 1.476562 -1.148438 1.15625 -1.734375 C 0.832031 -2.328125 0.671875 -3.023438 0.671875 -3.828125 C 0.671875 -4.617188 0.828125 -5.3125 1.140625 -5.90625 C 1.460938 -6.5 1.90625 -6.953125 2.46875 -7.265625 C 3.039062 -7.585938 3.691406 -7.75 4.421875 -7.75 C 5.148438 -7.75 5.785156 -7.585938 6.328125 -7.265625 C 6.878906 -6.953125 7.300781 -6.523438 7.59375 -5.984375 C 7.882812 -5.453125 8.03125 -4.863281 8.03125 -4.21875 Z M 7.046875 -4.234375 C 7.054688 -4.804688 6.941406 -5.289062 6.703125 -5.6875 C 6.460938 -6.09375 6.132812 -6.398438 5.71875 -6.609375 C 5.3125 -6.816406 4.863281 -6.921875 4.375 -6.921875 C 3.65625 -6.921875 3.035156 -6.6875 2.515625 -6.21875 C 2.003906 -5.75 1.722656 -5.085938 1.671875 -4.234375 Z M 7.046875 -4.234375 "/></g></g></g><g fill="#ff8f6c" fill-opacity="1"><g transform="translate(189.315815, 238.880243)"><g/></g></g><g fill="#ff8f6c" fill-opacity="1"><g transform="translate(193.149677, 238.880243)"><g><path d="M 6.84375 -9.78125 L 6.84375 -8.96875 L 4.125 -8.96875 L 4.125 0 L 3.15625 0 L 3.15625 -8.96875 L 0.421875 -8.96875 L 0.421875 -9.78125 Z M 6.84375 -9.78125 "/></g></g></g><g fill="#ff8f6c" fill-opacity="1"><g transform="translate(200.425612, 238.880243)"><g><path d="M 8.03125 -4.21875 C 8.03125 -3.875 8.023438 -3.613281 8.015625 -3.4375 L 1.671875 -3.4375 C 1.691406 -2.863281 1.828125 -2.367188 2.078125 -1.953125 C 2.335938 -1.546875 2.671875 -1.238281 3.078125 -1.03125 C 3.492188 -0.820312 3.941406 -0.71875 4.421875 -0.71875 C 5.054688 -0.71875 5.585938 -0.867188 6.015625 -1.171875 C 6.453125 -1.484375 6.742188 -1.898438 6.890625 -2.421875 L 7.921875 -2.421875 C 7.734375 -1.671875 7.332031 -1.0625 6.71875 -0.59375 C 6.113281 -0.125 5.347656 0.109375 4.421875 0.109375 C 3.703125 0.109375 3.054688 -0.0507812 2.484375 -0.375 C 1.921875 -0.695312 1.476562 -1.148438 1.15625 -1.734375 C 0.832031 -2.328125 0.671875 -3.023438 0.671875 -3.828125 C 0.671875 -4.617188 0.828125 -5.3125 1.140625 -5.90625 C 1.460938 -6.5 1.90625 -6.953125 2.46875 -7.265625 C 3.039062 -7.585938 3.691406 -7.75 4.421875 -7.75 C 5.148438 -7.75 5.785156 -7.585938 6.328125 -7.265625 C 6.878906 -6.953125 7.300781 -6.523438 7.59375 -5.984375 C 7.882812 -5.453125 8.03125 -4.863281 8.03125 -4.21875 Z M 7.046875 -4.234375 C 7.054688 -4.804688 6.941406 -5.289062 6.703125 -5.6875 C 6.460938 -6.09375 6.132812 -6.398438 5.71875 -6.609375 C 5.3125 -6.816406 4.863281 -6.921875 4.375 -6.921875 C 3.65625 -6.921875 3.035156 -6.6875 2.515625 -6.21875 C 2.003906 -5.75 1.722656 -5.085938 1.671875 -4.234375 Z M 7.046875 -4.234375 "/></g></g></g><g fill="#ff8f6c" fill-opacity="1"><g transform="translate(209.128752, 238.880243)"><g><path d="M 2.09375 -6.28125 C 2.3125 -6.757812 2.640625 -7.128906 3.078125 -7.390625 C 3.523438 -7.648438 4.070312 -7.78125 4.71875 -7.78125 L 4.71875 -6.765625 L 4.453125 -6.765625 C 3.742188 -6.765625 3.171875 -6.570312 2.734375 -6.1875 C 2.304688 -5.800781 2.09375 -5.160156 2.09375 -4.265625 L 2.09375 0 L 1.125 0 L 1.125 -7.640625 L 2.09375 -7.640625 Z M 2.09375 -6.28125 "/></g></g></g><g fill="#ff8f6c" fill-opacity="1"><g transform="translate(214.19393, 238.880243)"><g><path d="M 0.671875 -3.84375 C 0.671875 -4.625 0.828125 -5.3125 1.140625 -5.90625 C 1.453125 -6.5 1.882812 -6.953125 2.4375 -7.265625 C 3 -7.585938 3.628906 -7.75 4.328125 -7.75 C 5.054688 -7.75 5.679688 -7.582031 6.203125 -7.25 C 6.734375 -6.914062 7.113281 -6.488281 7.34375 -5.96875 L 7.34375 -7.640625 L 8.328125 -7.640625 L 8.328125 0 L 7.34375 0 L 7.34375 -1.6875 C 7.101562 -1.164062 6.71875 -0.734375 6.1875 -0.390625 C 5.664062 -0.0546875 5.039062 0.109375 4.3125 0.109375 C 3.625 0.109375 3 -0.0507812 2.4375 -0.375 C 1.882812 -0.707031 1.453125 -1.171875 1.140625 -1.765625 C 0.828125 -2.359375 0.671875 -3.050781 0.671875 -3.84375 Z M 7.34375 -3.828125 C 7.34375 -4.441406 7.21875 -4.976562 6.96875 -5.4375 C 6.71875 -5.90625 6.375 -6.265625 5.9375 -6.515625 C 5.507812 -6.773438 5.035156 -6.90625 4.515625 -6.90625 C 3.972656 -6.90625 3.484375 -6.78125 3.046875 -6.53125 C 2.617188 -6.289062 2.28125 -5.9375 2.03125 -5.46875 C 1.789062 -5.007812 1.671875 -4.46875 1.671875 -3.84375 C 1.671875 -3.207031 1.789062 -2.65625 2.03125 -2.1875 C 2.28125 -1.71875 2.617188 -1.359375 3.046875 -1.109375 C 3.484375 -0.859375 3.972656 -0.734375 4.515625 -0.734375 C 5.035156 -0.734375 5.507812 -0.859375 5.9375 -1.109375 C 6.375 -1.367188 6.71875 -1.726562 6.96875 -2.1875 C 7.21875 -2.65625 7.34375 -3.203125 7.34375 -3.828125 Z M 7.34375 -3.828125 "/></g></g></g><g fill="#ff8f6c" fill-opacity="1"><g transform="translate(223.638658, 238.880243)"><g><path d="M 2.09375 -5.96875 C 2.332031 -6.476562 2.710938 -6.898438 3.234375 -7.234375 C 3.765625 -7.578125 4.394531 -7.75 5.125 -7.75 C 5.8125 -7.75 6.429688 -7.585938 6.984375 -7.265625 C 7.546875 -6.953125 7.984375 -6.5 8.296875 -5.90625 C 8.609375 -5.3125 8.765625 -4.625 8.765625 -3.84375 C 8.765625 -3.050781 8.609375 -2.359375 8.296875 -1.765625 C 7.984375 -1.171875 7.546875 -0.707031 6.984375 -0.375 C 6.429688 -0.0507812 5.8125 0.109375 5.125 0.109375 C 4.40625 0.109375 3.78125 -0.0546875 3.25 -0.390625 C 2.71875 -0.734375 2.332031 -1.164062 2.09375 -1.6875 L 2.09375 3.609375 L 1.125 3.609375 L 1.125 -7.640625 L 2.09375 -7.640625 Z M 7.765625 -3.84375 C 7.765625 -4.46875 7.640625 -5.007812 7.390625 -5.46875 C 7.148438 -5.9375 6.8125 -6.289062 6.375 -6.53125 C 5.945312 -6.78125 5.460938 -6.90625 4.921875 -6.90625 C 4.398438 -6.90625 3.921875 -6.773438 3.484375 -6.515625 C 3.054688 -6.265625 2.71875 -5.90625 2.46875 -5.4375 C 2.21875 -4.976562 2.09375 -4.441406 2.09375 -3.828125 C 2.09375 -3.203125 2.21875 -2.65625 2.46875 -2.1875 C 2.71875 -1.726562 3.054688 -1.367188 3.484375 -1.109375 C 3.921875 -0.859375 4.398438 -0.734375 4.921875 -0.734375 C 5.460938 -0.734375 5.945312 -0.859375 6.375 -1.109375 C 6.8125 -1.359375 7.148438 -1.71875 7.390625 -2.1875 C 7.640625 -2.65625 7.765625 -3.207031 7.765625 -3.84375 Z M 7.765625 -3.84375 "/></g></g></g><g fill="#ff8f6c" fill-opacity="1"><g transform="translate(233.083386, 238.880243)"><g><path d="M 8.03125 -4.21875 C 8.03125 -3.875 8.023438 -3.613281 8.015625 -3.4375 L 1.671875 -3.4375 C 1.691406 -2.863281 1.828125 -2.367188 2.078125 -1.953125 C 2.335938 -1.546875 2.671875 -1.238281 3.078125 -1.03125 C 3.492188 -0.820312 3.941406 -0.71875 4.421875 -0.71875 C 5.054688 -0.71875 5.585938 -0.867188 6.015625 -1.171875 C 6.453125 -1.484375 6.742188 -1.898438 6.890625 -2.421875 L 7.921875 -2.421875 C 7.734375 -1.671875 7.332031 -1.0625 6.71875 -0.59375 C 6.113281 -0.125 5.347656 0.109375 4.421875 0.109375 C 3.703125 0.109375 3.054688 -0.0507812 2.484375 -0.375 C 1.921875 -0.695312 1.476562 -1.148438 1.15625 -1.734375 C 0.832031 -2.328125 0.671875 -3.023438 0.671875 -3.828125 C 0.671875 -4.617188 0.828125 -5.3125 1.140625 -5.90625 C 1.460938 -6.5 1.90625 -6.953125 2.46875 -7.265625 C 3.039062 -7.585938 3.691406 -7.75 4.421875 -7.75 C 5.148438 -7.75 5.785156 -7.585938 6.328125 -7.265625 C 6.878906 -6.953125 7.300781 -6.523438 7.59375 -5.984375 C 7.882812 -5.453125 8.03125 -4.863281 8.03125 -4.21875 Z M 7.046875 -4.234375 C 7.054688 -4.804688 6.941406 -5.289062 6.703125 -5.6875 C 6.460938 -6.09375 6.132812 -6.398438 5.71875 -6.609375 C 5.3125 -6.816406 4.863281 -6.921875 4.375 -6.921875 C 3.65625 -6.921875 3.035156 -6.6875 2.515625 -6.21875 C 2.003906 -5.75 1.722656 -5.085938 1.671875 -4.234375 Z M 7.046875 -4.234375 "/></g></g></g><g fill="#ff8f6c" fill-opacity="1"><g transform="translate(241.786526, 238.880243)"><g><path d="M 7.734375 -7.640625 L 7.734375 0 L 6.765625 0 L 6.765625 -1.34375 C 6.535156 -0.863281 6.1875 -0.5 5.71875 -0.25 C 5.257812 0 4.738281 0.125 4.15625 0.125 C 3.238281 0.125 2.488281 -0.15625 1.90625 -0.71875 C 1.332031 -1.28125 1.046875 -2.097656 1.046875 -3.171875 L 1.046875 -7.640625 L 2.015625 -7.640625 L 2.015625 -3.296875 C 2.015625 -2.460938 2.222656 -1.828125 2.640625 -1.390625 C 3.054688 -0.953125 3.625 -0.734375 4.34375 -0.734375 C 5.082031 -0.734375 5.671875 -0.960938 6.109375 -1.421875 C 6.546875 -1.890625 6.765625 -2.578125 6.765625 -3.484375 L 6.765625 -7.640625 Z M 7.734375 -7.640625 "/></g></g></g><g fill="#ff8f6c" fill-opacity="1"><g transform="translate(250.643577, 238.880243)"><g><path d="M 2.390625 -6.8125 L 2.390625 -2.078125 C 2.390625 -1.609375 2.476562 -1.285156 2.65625 -1.109375 C 2.832031 -0.929688 3.144531 -0.84375 3.59375 -0.84375 L 4.5 -0.84375 L 4.5 0 L 3.4375 0 C 2.75 0 2.238281 -0.160156 1.90625 -0.484375 C 1.570312 -0.804688 1.40625 -1.335938 1.40625 -2.078125 L 1.40625 -6.8125 L 0.34375 -6.8125 L 0.34375 -7.640625 L 1.40625 -7.640625 L 1.40625 -9.5625 L 2.390625 -9.5625 L 2.390625 -7.640625 L 4.5 -7.640625 L 4.5 -6.8125 Z M 2.390625 -6.8125 "/></g></g></g><g fill="#ff8f6c" fill-opacity="1"><g transform="translate(255.624801, 238.880243)"><g><path d="M 0.671875 -3.84375 C 0.671875 -4.625 0.828125 -5.3125 1.140625 -5.90625 C 1.453125 -6.5 1.882812 -6.953125 2.4375 -7.265625 C 3 -7.585938 3.628906 -7.75 4.328125 -7.75 C 5.054688 -7.75 5.679688 -7.582031 6.203125 -7.25 C 6.734375 -6.914062 7.113281 -6.488281 7.34375 -5.96875 L 7.34375 -7.640625 L 8.328125 -7.640625 L 8.328125 0 L 7.34375 0 L 7.34375 -1.6875 C 7.101562 -1.164062 6.71875 -0.734375 6.1875 -0.390625 C 5.664062 -0.0546875 5.039062 0.109375 4.3125 0.109375 C 3.625 0.109375 3 -0.0507812 2.4375 -0.375 C 1.882812 -0.707031 1.453125 -1.171875 1.140625 -1.765625 C 0.828125 -2.359375 0.671875 -3.050781 0.671875 -3.84375 Z M 7.34375 -3.828125 C 7.34375 -4.441406 7.21875 -4.976562 6.96875 -5.4375 C 6.71875 -5.90625 6.375 -6.265625 5.9375 -6.515625 C 5.507812 -6.773438 5.035156 -6.90625 4.515625 -6.90625 C 3.972656 -6.90625 3.484375 -6.78125 3.046875 -6.53125 C 2.617188 -6.289062 2.28125 -5.9375 2.03125 -5.46875 C 1.789062 -5.007812 1.671875 -4.46875 1.671875 -3.84375 C 1.671875 -3.207031 1.789062 -2.65625 2.03125 -2.1875 C 2.28125 -1.71875 2.617188 -1.359375 3.046875 -1.109375 C 3.484375 -0.859375 3.972656 -0.734375 4.515625 -0.734375 C 5.035156 -0.734375 5.507812 -0.859375 5.9375 -1.109375 C 6.375 -1.367188 6.71875 -1.726562 6.96875 -2.1875 C 7.21875 -2.65625 7.34375 -3.203125 7.34375 -3.828125 Z M 7.34375 -3.828125 "/></g></g></g></svg>